<svg id="Capa_1" enable-background="new 0 0 512 512" height="512" viewBox="0 0 512 512" width="512" xmlns="http://www.w3.org/2000/svg"><g><circle cx="276" cy="236" fill="#ffe6b4" r="226"/><path d="m346.332 70.309-70.332 165.691-67.429-166.894c42.716-17.251 92.012-18.216 137.761 1.203z" fill="#ff7b79"/><path d="m442.894 168.571-166.894 67.429 70.332-165.691c45.749 19.42 79.299 55.551 96.562 98.262z" fill="#bfdbff"/><path d="m441.691 306.332-165.691-70.332 166.894-67.429c17.251 42.716 18.216 92.012-1.203 137.761z" fill="#ff7b79"/><path d="m441.691 306.332c-19.419 45.749-55.551 79.298-98.262 96.562l-67.429-166.894z" fill="#bfdbff"/><path d="m343.429 402.894c-42.716 17.251-92.012 18.216-137.761-1.204l70.332-165.69z" fill="#ff7b79"/><path d="m276 236-70.332 165.691c-45.749-19.419-79.298-55.551-96.562-98.262z" fill="#bfdbff"/><path d="m276 236-166.894 67.429c-17.251-42.716-18.216-92.012 1.204-137.761z" fill="#ff7b79"/><path d="m276 236-165.691-70.332c19.42-45.749 55.551-79.298 98.262-96.562z" fill="#bfdbff"/><g fill="#ffcd69"><circle cx="276" cy="236" r="40"/><path d="m150 236s-62.386 50-90 50-50-22.386-50-50 22.386-50 50-50 90 50 90 50z"/><path d="m401 502h-250l22.86-117.78c29.02 20.04 64.21 31.78 102.14 31.78s73.12-11.74 102.14-31.78z"/></g><path d="m203.5 462h145v40h-145z" fill="#fff"/><g><path d="m473.75 345.96c-1.58-.98-3.4-1.49-5.25-1.49-3.5 0-6.68 1.78-8.52 4.75v.01c-2.89 4.69-1.42 10.86 3.27 13.75 1.58.98 3.39 1.49 5.24 1.49 3.5 0 6.68-1.77 8.52-4.75 2.89-4.69 1.43-10.87-3.26-13.76z"/><path d="m507.2 188.426c-3.1-15.161-7.72-30.061-13.75-44.302-5.91-13.991-13.23-27.471-21.76-40.092-8.44-12.501-18.13-24.251-28.81-34.932s-22.43-20.371-34.93-28.811c-12.62-8.53-26.1-15.851-40.09-21.761-14.24-6.03-29.14-10.65-44.3-13.751-31.09-6.37-64.03-6.37-95.12 0-15.16 3.1-30.06 7.72-44.3 13.751-13.99 5.91-27.47 13.231-40.09 21.761-12.5 8.44-24.25 18.131-34.93 28.811s-20.37 22.431-28.81 34.932c-8.53 12.621-15.85 26.101-21.76 40.092-4.55 10.75-8.3 21.881-11.2 33.211 0 .001-.001.003-.001.004-27.028 5.826-47.349 29.904-47.349 58.649s20.321 52.823 47.349 58.649c0 .001.001.003.001.004 2.9 11.331 6.65 22.461 11.2 33.211 5.91 13.991 13.23 27.471 21.76 40.092 8.44 12.501 18.13 24.251 28.81 34.932s22.43 20.371 34.93 28.811c3.03 2.05 6.12 4.04 9.25 5.94.002.001.004.002.006.004l-12.123 62.464c-.569 2.931.202 5.964 2.102 8.267 1.899 2.304 4.729 3.638 7.715 3.638h250c2.986 0 5.816-1.335 7.715-3.638 1.9-2.304 2.67-5.336 2.102-8.267l-12.123-62.464c.002-.001.004-.002.006-.004 4.89-2.98 9.66-6.13 14.31-9.45 12.83-9.16 24.79-19.651 35.54-31.181 1.83-1.95 2.78-4.5 2.69-7.17s-1.22-5.14-3.17-6.96c-1.86-1.74-4.28-2.69-6.82-2.69-2.77 0-5.43 1.16-7.32 3.18-11.95 12.801-25.13 23.931-39.3 33.291-.003.002-.005.003-.008.005l-5.427-27.963c26.979-19.929 48.251-46.776 61.7-78.46 19.829-46.716 20.279-98.36 1.267-145.42 0-.001-.001-.001-.001-.002-19.017-47.057-55.214-83.893-101.924-103.722-46.714-19.83-98.357-20.28-145.414-1.267-.001 0-.001.001-.002.001-47.053 19.017-83.886 55.213-103.715 101.923-.001.002-.002.004-.003.006-3.368 7.938-6.189 16.104-8.454 24.393-8.657-4.312-17.095-7.673-24.509-9.221 9.9-35.06 28.65-67.199 55.118-93.679 40.812-40.792 95.062-63.263 152.742-63.263s111.93 22.471 152.74 63.263c40.79 40.812 63.25 95.064 63.26 152.747 0 25.661-4.45 50.772-13.24 74.633-.92 2.5-.81 5.22.31 7.64 1.12 2.43 3.12 4.27 5.62 5.19 1.12.42 2.28.62 3.46.62 4.17 0 7.94-2.63 9.38-6.54 9.6-26.081 14.47-53.512 14.47-81.544 0-16.01-1.61-32.021-4.8-47.561zm-487.2 47.562c0-22.057 17.944-40.002 40-40.002 15.219 0 49.721 22.085 73.655 40.003-23.924 17.918-58.418 40-73.655 40-22.056.001-40-17.944-40-40.001zm214.347 27.62c3.539 5.32 8.068 9.923 13.323 13.551l-47.128 111.205c-7.244-3.598-21.349-12.588-21.523-12.693-24.327-16.82-43.795-39.691-56.624-66.831zm41.653-57.621c16.542 0 30 13.459 30 30.001s-13.458 30.001-30 30.001-30-13.459-30-30.001 13.458-30.001 30-30.001zm0 80.003c3.102 0 6.134-.298 9.081-.842l45.24 111.983c-17.349 5.847-35.642 8.864-54.32 8.864-19.686 0-38.946-3.349-57.122-9.834l47.187-111.166c3.211.651 6.533.995 9.934.995zm-118.61 130.596c-12.16-8-23.6-17.321-34.13-27.851-26.469-26.48-45.218-58.619-55.118-93.679 7.415-1.547 15.852-4.909 24.509-9.221 1.978 7.244 4.38 14.38 7.186 21.329.001.001.001.003.001.004 13.322 32.966 35.075 60.915 62.967 81.515zm56.11 75.413v-20.001h125v20.001zm145 0v-30.001c0-5.523-4.477-10-10-10h-145c-5.523 0-10 4.477-10 10v30.001h-30.373l17.758-91.498c28.827 16.721 61.416 25.495 95.114 25.495s66.287-8.774 95.114-25.495l17.758 91.498zm16.578-117.785c-.439.313-17.996 11.497-26.132 15.372l-45.322-111.947c5.316-3.538 9.916-8.064 13.541-13.315l111.147 47.184c-12.469 25.232-30.708 46.621-53.234 62.706zm-50.072-128.291c.65-3.212.994-6.534.994-9.935 0-3.102-.298-6.134-.841-9.081l111.94-45.226c12.313 36.371 11.972 75.267-.97 111.415zm104.599-82.787-111.952 45.231c-3.538-5.318-8.066-9.92-13.319-13.548l47.181-111.152c34.417 17.011 61.68 44.753 78.09 79.469zm-96.5-87.283-47.17 111.127c-3.212-.65-6.534-.994-9.935-.994-3.102 0-6.134.298-9.081.842l-45.224-111.945c36.369-12.313 75.265-11.974 111.41.97zm-129.953 6.523 45.229 111.957c-5.318 3.538-9.92 8.066-13.547 13.319l-111.147-47.184c17.009-34.417 44.75-61.681 79.465-78.092zm-87.276 96.506 111.118 47.171c-.65 3.212-.994 6.534-.994 9.935 0 3.102.298 6.134.841 9.081l-111.933 45.223c-1.61-4.773-2.995-9.624-4.181-14.515 22.063-13.397 41.841-29.033 45.526-31.986 2.368-1.898 3.746-4.769 3.746-7.804s-1.378-5.906-3.746-7.804c-3.686-2.954-23.476-18.6-45.548-31.999 1.416-5.836 3.14-11.619 5.171-17.302z"/><circle cx="276" cy="236" r="10"/></g></g></svg>